<svg version="1.1" id="Layer_1" xmlns="http://www.w3.org/2000/svg" xmlns:xlink="http://www.w3.org/1999/xlink" x="0px" y="0px"
	 width="100%" viewBox="0 0 577 433" enable-background="new 0 0 577 433" xml:space="preserve">
<path fill="#000000" opacity="1.000000" stroke="none" 
	d="
M425.000000,434.000000 
	C283.333374,434.000000 142.166733,434.000000 1.000076,434.000000 
	C1.000051,289.666748 1.000051,145.333466 1.000025,1.000153 
	C193.333206,1.000102 385.666412,1.000102 577.999756,1.000051 
	C577.999817,145.333176 577.999817,289.666351 577.999878,433.999756 
	C527.166687,434.000000 476.333344,434.000000 425.000000,434.000000 
M393.857239,354.611145 
	C393.903687,354.115509 393.990753,353.619843 393.990814,353.124207 
	C393.998077,294.572113 394.004364,236.020004 393.959869,177.467926 
	C393.959015,176.317230 393.358002,175.166992 392.967896,173.143799 
	C391.967529,162.153152 389.181854,151.688873 383.906891,141.237839 
	C379.150269,128.431625 371.301453,117.827080 360.776031,108.467873 
	C360.328613,108.137314 359.881226,107.806755 359.473419,107.404022 
	C359.473419,107.404022 359.426819,107.336159 359.092896,106.795921 
	C352.720215,102.270485 346.347504,97.745041 339.327576,92.906876 
	C330.371490,87.137505 320.918121,82.730087 309.371613,82.045998 
	C307.592590,81.680405 305.813538,81.314812 303.593353,80.261650 
	C296.060852,80.234596 288.528351,80.207542 280.101318,80.042740 
	C272.739807,81.437851 265.378296,82.832962 257.263153,84.318848 
	C251.506622,86.863327 245.750076,89.407806 239.259445,92.004929 
	C229.423248,97.628403 220.399185,104.272545 212.948334,112.940887 
	C212.948334,112.940887 212.930527,112.964119 212.449814,113.096001 
	C212.088577,113.303322 212.006287,113.590576 211.936661,114.601425 
	C210.349228,116.734451 208.761810,118.867477 206.845230,121.636841 
	C203.844864,125.737640 200.844498,129.838440 197.205307,134.280731 
	C195.787094,137.815826 194.368881,141.350906 192.884720,144.905655 
	C192.884720,144.905655 192.893417,144.973923 192.206497,145.305374 
	C190.186050,153.819794 188.165619,162.334198 185.973770,171.802444 
	C185.973770,233.170959 185.973770,294.539459 185.973770,355.788483 
	C220.515640,355.788483 254.314484,355.788483 289.014038,355.942749 
	C322.340698,355.924347 355.667358,355.917053 388.993896,355.847839 
	C390.346069,355.845032 391.696991,355.258575 393.857239,354.611145 
z"/>
<path fill="#FE9C30" opacity="1.000000" stroke="none" 
	d="
M197.844131,133.939240 
	C200.844498,129.838440 203.844864,125.737640 207.324402,121.421310 
	C208.401215,122.138435 209.731873,123.414528 209.481140,123.949699 
	C207.377426,128.439789 208.971130,132.650024 209.889633,136.993057 
	C210.169449,138.316193 209.374710,139.857117 209.116943,141.306274 
	C208.894333,142.557861 208.555145,143.823914 208.577011,145.078171 
	C208.740860,154.473495 209.088242,163.866638 209.161667,173.262161 
	C209.212845,179.808029 208.734955,186.359756 208.846207,192.902847 
	C208.924789,197.525085 209.915558,202.135193 209.945541,206.754303 
	C210.091446,229.227081 210.050827,251.701065 210.082428,274.317688 
	C210.088623,274.460785 210.078018,274.747009 209.732880,274.932617 
	C207.392227,277.914612 206.870834,280.620514 209.908539,283.570557 
	C209.959030,286.030701 210.035904,288.031311 209.990677,290.029114 
	C209.674652,303.995178 209.273254,317.959625 209.024124,331.926788 
	C208.888626,339.523865 208.998154,347.125305 208.531921,354.770203 
	C202.367126,354.586670 196.667557,354.357697 191.105743,353.778381 
	C191.162750,350.462189 191.012390,347.496368 191.011597,344.530487 
	C190.997391,291.199738 190.999893,237.868973 191.007401,184.538208 
	C191.007645,182.874069 191.084854,181.209351 191.151108,179.545898 
	C191.462097,171.736862 191.759308,163.927155 192.115250,156.120132 
	C192.197601,154.314087 192.545486,152.521530 192.672836,150.715805 
	C192.807526,148.806168 192.824829,146.888229 192.893417,144.973923 
	C192.893417,144.973923 192.884720,144.905655 193.288330,144.895309 
	C196.576050,141.805420 199.663635,138.803070 197.844131,133.939240 
z"/>
<path fill="#F7203D" opacity="1.000000" stroke="none" 
	d="
M383.784058,141.994751 
	C389.181854,151.688873 391.967529,162.153152 392.963165,173.807068 
	C392.958435,174.470337 392.807922,174.905579 392.601746,175.274017 
	C392.263062,177.792252 392.015686,179.941986 392.014893,182.091827 
	C391.994293,237.385757 392.002838,292.679688 391.987885,347.973633 
	C391.987244,350.299225 391.809357,352.624786 391.370544,354.984375 
	C390.338837,354.984589 389.650604,354.950775 388.797363,354.752899 
	C388.095154,354.709656 387.557892,354.830536 386.565643,354.983887 
	C383.071228,354.958191 380.031860,354.899994 376.989197,354.430115 
	C376.657288,349.253540 376.199249,344.493164 376.032043,339.722595 
	C375.812073,333.445892 375.674805,327.157928 375.814362,320.881714 
	C375.860260,318.818207 376.852295,316.768677 377.460938,314.727448 
	C377.813110,313.546387 378.263458,312.394592 378.669617,311.229645 
	C377.454987,311.153748 376.240326,311.077850 375.023682,310.543823 
	C375.010986,306.724182 375.000275,303.362701 375.229858,299.721741 
	C375.897583,297.937103 376.680939,296.431335 376.678192,294.926971 
	C376.672516,291.795013 376.035797,288.664062 376.032379,285.532257 
	C375.984528,241.967804 376.024506,198.403275 375.957855,154.838867 
	C375.951935,150.955048 375.353668,147.072159 375.047028,143.387634 
	C376.368256,141.346848 377.770630,139.180649 379.220551,136.941040 
	C380.628113,138.499786 382.206085,140.247253 383.784058,141.994751 
z"/>
<path fill="#F62C3C" opacity="1.000000" stroke="none" 
	d="
M383.845459,141.616287 
	C382.206085,140.247253 380.628113,138.499786 379.220551,136.941040 
	C377.770630,139.180649 376.368256,141.346848 375.047028,143.387634 
	C375.353668,147.072159 375.951935,150.955048 375.957855,154.838867 
	C376.024506,198.403275 375.984528,241.967804 376.032379,285.532257 
	C376.035797,288.664062 376.672516,291.795013 376.678192,294.926971 
	C376.680939,296.431335 375.897583,297.937103 374.993713,299.522736 
	C373.664825,299.111267 372.812439,298.619324 371.922821,298.116211 
	C371.885559,298.105042 371.846619,298.037720 371.891754,297.658020 
	C370.903931,292.072693 365.158905,288.242798 358.001617,287.521606 
	C359.033417,253.093979 355.483826,219.005371 360.815369,185.153809 
	C360.964294,184.208328 359.771698,183.051544 359.129944,181.556854 
	C358.848999,178.995178 358.788849,176.843399 358.408600,174.749771 
	C357.335419,168.841446 356.130829,162.956955 355.216980,156.832901 
	C357.534515,146.707352 357.890778,136.803360 355.248657,126.827492 
	C356.840393,126.218933 358.139008,125.722443 359.542847,125.185722 
	C353.152649,117.062363 352.443420,109.607201 359.426819,107.336159 
	C359.426819,107.336159 359.473419,107.404022 359.493713,107.739662 
	C359.994141,108.383965 360.474274,108.692627 360.954376,109.001282 
	C371.301453,117.827080 379.150269,128.431625 383.845459,141.616287 
z"/>
<path fill="#FC9131" opacity="1.000000" stroke="none" 
	d="
M210.076248,274.174622 
	C210.050827,251.701065 210.091446,229.227081 209.945541,206.754303 
	C209.915558,202.135193 208.924789,197.525085 208.846207,192.902847 
	C208.734955,186.359756 209.212845,179.808029 209.161667,173.262161 
	C209.088242,163.866638 208.740860,154.473495 208.577011,145.078171 
	C208.555145,143.823914 208.894333,142.557861 209.116943,141.306274 
	C209.374710,139.857117 210.169449,138.316193 209.889633,136.993057 
	C208.971130,132.650024 207.377426,128.439789 209.481140,123.949699 
	C209.731873,123.414528 208.401215,122.138435 207.488983,121.103134 
	C208.761810,118.867477 210.349228,116.734451 212.225754,114.141243 
	C212.707947,113.473701 212.846512,113.234718 212.930527,112.964119 
	C212.930527,112.964119 212.948334,112.940887 213.321686,112.937164 
	C215.561951,111.690331 217.762054,110.748978 219.221939,109.137184 
	C221.750931,106.345047 224.242188,105.655434 227.261414,107.734337 
	C227.502472,110.444290 227.850021,113.018356 227.936340,115.601166 
	C228.112045,120.859344 229.327194,126.454712 227.961075,131.304703 
	C225.946945,138.455231 228.308945,144.150497 230.955383,150.356186 
	C230.722565,150.855133 230.470840,150.997818 229.797333,151.092743 
	C227.380020,153.780594 224.963837,156.283722 227.015137,160.417221 
	C226.286484,164.616302 225.002121,168.412201 224.991882,172.211533 
	C224.969742,180.426086 225.106155,188.705414 226.141769,196.835434 
	C226.810837,202.087891 229.188202,207.122757 230.359741,212.219238 
	C228.951599,213.396713 227.192368,214.580902 227.146362,215.828278 
	C226.879395,223.066864 226.900772,230.322571 227.041351,237.568268 
	C227.276154,249.670486 227.674286,261.769531 227.537323,273.913574 
	C221.406067,274.029724 215.741165,274.102173 210.076248,274.174622 
z"/>
<path fill="#F63B3B" opacity="1.000000" stroke="none" 
	d="
M359.259857,107.066040 
	C352.443420,109.607201 353.152649,117.062363 359.542847,125.185722 
	C358.139008,125.722443 356.840393,126.218933 355.248657,126.827492 
	C357.890778,136.803360 357.534515,146.707352 354.903137,156.656525 
	C352.445160,153.181351 350.723846,149.536591 348.590942,146.151169 
	C345.543732,141.314514 342.195221,136.667709 338.783508,131.744324 
	C338.081146,131.370529 337.570679,131.192245 337.026001,131.012939 
	C336.991791,131.011932 336.989624,130.943558 336.979248,130.598206 
	C336.249878,128.804276 335.013672,127.394485 334.901581,125.900368 
	C334.420380,119.485886 334.509216,113.024864 333.927734,106.622818 
	C333.403748,100.854103 334.695496,96.218781 339.974823,93.219604 
	C346.347504,97.745041 352.720215,102.270485 359.259857,107.066040 
z"/>
<path fill="#FBA531" opacity="1.000000" stroke="none" 
	d="
M192.549957,145.139648 
	C192.824829,146.888229 192.807526,148.806168 192.672836,150.715805 
	C192.545486,152.521530 192.197601,154.314087 192.115250,156.120132 
	C191.759308,163.927155 191.462097,171.736862 191.151108,179.545898 
	C191.084854,181.209351 191.007645,182.874069 191.007401,184.538208 
	C190.999893,237.868973 190.997391,291.199738 191.011597,344.530487 
	C191.012390,347.496368 191.162750,350.462189 190.696564,353.752136 
	C185.799957,353.770874 187.065933,350.399872 187.063553,348.026703 
	C187.006149,291.062408 187.028809,234.098068 186.983139,177.133774 
	C186.981461,175.038498 186.436798,172.943665 186.145187,170.848618 
	C188.165619,162.334198 190.186050,153.819794 192.549957,145.139648 
z"/>
<path fill="#F64B3B" opacity="1.000000" stroke="none" 
	d="
M339.651184,93.063248 
	C334.695496,96.218781 333.403748,100.854103 333.927734,106.622818 
	C334.509216,113.024864 334.420380,119.485886 334.901581,125.900368 
	C335.013672,127.394485 336.249878,128.804276 336.659119,130.483093 
	C328.235535,123.051529 318.392426,118.523582 308.264954,114.814667 
	C311.773376,114.067551 313.264984,112.573235 313.093994,108.947945 
	C312.766754,102.008545 313.213043,95.031898 312.861023,88.094940 
	C312.759399,86.092163 311.028015,84.172081 310.043793,82.214096 
	C320.918121,82.730087 330.371490,87.137505 339.651184,93.063248 
z"/>
<path fill="#FA8635" opacity="1.000000" stroke="none" 
	d="
M231.015182,150.138794 
	C228.308945,144.150497 225.946945,138.455231 227.961075,131.304703 
	C229.327194,126.454712 228.112045,120.859344 227.936340,115.601166 
	C227.850021,113.018356 227.502472,110.444290 227.261414,107.734337 
	C224.242188,105.655434 221.750931,106.345047 219.221939,109.137184 
	C217.762054,110.748978 215.561951,111.690331 213.332916,112.927795 
	C220.399185,104.272545 229.423248,97.628403 239.795670,92.275070 
	C241.690201,93.708504 243.048523,94.871796 243.814072,95.527420 
	C243.533890,100.425125 243.184906,104.835411 243.070938,109.251762 
	C243.016342,111.367554 244.122406,113.755608 243.461945,115.568199 
	C241.451782,121.084854 244.509674,124.929932 246.901672,129.378555 
	C241.517258,136.512924 236.266220,143.325851 231.015182,150.138794 
z"/>
<path fill="#FB7135" opacity="1.000000" stroke="none" 
	d="
M258.016785,84.228073 
	C265.378296,82.832962 272.739807,81.437851 280.434570,80.413605 
	C278.378204,81.906593 277.227875,83.545013 277.387360,86.422096 
	C277.772766,93.375015 277.957245,100.347046 277.941772,107.310760 
	C277.934326,110.668129 278.973602,112.246086 282.523315,112.040321 
	C286.003479,111.838600 289.503723,111.983131 293.327515,111.987854 
	C294.103058,112.015602 294.546204,112.031189 294.990723,112.334564 
	C294.996613,113.007378 295.001129,113.392395 294.622070,113.850891 
	C286.496429,113.859627 278.685181,113.324852 271.273834,116.257431 
	C266.139130,118.289154 261.099792,120.561951 256.086670,122.391685 
	C257.748566,119.604774 259.442261,117.210541 260.887878,114.674896 
	C261.511780,113.580574 261.947815,112.182281 261.903748,110.942184 
	C261.788025,107.684708 261.458282,104.425446 261.029053,101.191422 
	C260.674652,98.521454 260.056213,95.886536 259.554810,93.236084 
	C259.035614,93.294022 258.516418,93.351959 257.997253,93.409904 
	C260.076904,90.282646 262.159821,87.155296 258.016785,84.228073 
z"/>
<path fill="#FB7C34" opacity="1.000000" stroke="none" 
	d="
M257.639954,84.273460 
	C262.159821,87.155296 260.076904,90.282646 257.997253,93.409904 
	C258.516418,93.351959 259.035614,93.294022 259.554810,93.236084 
	C260.056213,95.886536 260.674652,98.521454 261.029053,101.191422 
	C261.458282,104.425446 261.788025,107.684708 261.903748,110.942184 
	C261.947815,112.182281 261.511780,113.580574 260.887878,114.674896 
	C259.442261,117.210541 257.748566,119.604774 255.767807,122.565697 
	C252.598434,125.069069 249.816742,127.063095 247.035065,129.057129 
	C244.509674,124.929932 241.451782,121.084854 243.461945,115.568199 
	C244.122406,113.755608 243.016342,111.367554 243.070938,109.251762 
	C243.184906,104.835411 243.533890,100.425125 243.814072,95.527420 
	C243.048523,94.871796 241.690201,93.708504 240.162720,92.248749 
	C245.750076,89.407806 251.506622,86.863327 257.639954,84.273460 
z"/>
<path fill="#F95638" opacity="1.000000" stroke="none" 
	d="
M294.989380,112.046776 
	C294.546204,112.031189 294.103058,112.015602 293.354767,111.569946 
	C293.366852,105.058632 293.869019,98.980141 293.959717,92.895531 
	C294.111633,82.702507 294.001221,82.700859 304.034515,80.949219 
	C305.813538,81.314812 307.592590,81.680405 309.707703,82.130051 
	C311.028015,84.172081 312.759399,86.092163 312.861023,88.094940 
	C313.213043,95.031898 312.766754,102.008545 313.093994,108.947945 
	C313.264984,112.573235 311.773376,114.067551 307.936401,114.777260 
	C306.875153,114.910408 306.441010,114.843452 305.862976,114.452026 
	C302.142517,113.433960 298.565948,112.740372 294.989380,112.046776 
z"/>
<path fill="#FA6237" opacity="1.000000" stroke="none" 
	d="
M303.813934,80.605438 
	C294.001221,82.700859 294.111633,82.702507 293.959717,92.895531 
	C293.869019,98.980141 293.366852,105.058632 293.022400,111.557785 
	C289.503723,111.983131 286.003479,111.838600 282.523315,112.040321 
	C278.973602,112.246086 277.934326,110.668129 277.941772,107.310760 
	C277.957245,100.347046 277.772766,93.375015 277.387360,86.422096 
	C277.227875,83.545013 278.378204,81.906593 280.881836,80.482483 
	C288.528351,80.207542 296.060852,80.234596 303.813934,80.605438 
z"/>
<path fill="#E1A95F" opacity="1.000000" stroke="none" 
	d="
M186.059479,171.325531 
	C186.436798,172.943665 186.981461,175.038498 186.983139,177.133774 
	C187.028809,234.098068 187.006149,291.062408 187.063553,348.026703 
	C187.065933,350.399872 185.799957,353.770874 190.558823,354.102478 
	C196.667557,354.357697 202.367126,354.586670 208.998123,354.831543 
	C216.278336,354.818146 222.627121,354.788849 229.441071,354.815979 
	C234.270905,354.844421 238.635559,354.816376 243.456543,354.828735 
	C247.270523,354.841675 250.628174,354.814209 254.445938,354.843201 
	C258.598358,354.860779 262.290680,354.821899 266.410950,354.830994 
	C268.560974,354.883392 270.283081,354.887848 272.419678,354.936646 
	C274.223480,354.960419 275.612762,354.939819 277.416931,354.944702 
	C279.213959,354.937103 280.596100,354.904053 282.405609,354.908997 
	C284.548096,354.955139 286.263214,354.963257 288.003082,355.177124 
	C288.027832,355.382874 288.113312,355.788483 288.113312,355.788483 
	C254.314484,355.788483 220.515640,355.788483 185.973770,355.788483 
	C185.973770,294.539459 185.973770,233.170959 186.059479,171.325531 
z"/>
<path fill="#FFFFFF" opacity="1.000000" stroke="none" 
	d="
M392.807922,174.905579 
	C392.807922,174.905579 392.958435,174.470337 392.997711,174.243439 
	C393.358002,175.166992 393.959015,176.317230 393.959869,177.467926 
	C394.004364,236.020004 393.998077,294.572113 393.990814,353.124207 
	C393.990753,353.619843 393.903687,354.115509 393.449280,354.793396 
	C393.041321,354.975647 393.053589,354.940521 393.026794,354.476227 
	C393.000427,296.633301 393.003113,239.254654 392.993134,181.876007 
	C392.992737,179.552521 392.872406,177.229050 392.807922,174.905579 
z"/>
<path fill="#EF7241" opacity="1.000000" stroke="none" 
	d="
M288.563660,355.865601 
	C288.113312,355.788483 288.027832,355.382874 288.310059,354.951294 
	C290.390778,354.346466 292.189301,354.173218 294.330322,354.230774 
	C300.113525,354.561981 305.554199,354.662415 311.461334,354.804016 
	C317.619812,354.839630 323.311829,354.834045 329.468262,354.873810 
	C334.624939,354.892456 339.317261,354.865784 344.471252,354.887909 
	C349.287018,354.904388 353.641083,354.872070 358.461853,354.883606 
	C364.949890,354.898895 370.971161,354.870361 376.992462,354.841827 
	C380.031860,354.899994 383.071228,354.958191 386.888885,355.023773 
	C388.098877,354.993134 388.530609,354.955048 388.962341,354.916992 
	C389.650604,354.950775 390.338837,354.984589 391.707214,355.008667 
	C392.609406,354.979462 392.831512,354.959991 393.053589,354.940521 
	C393.053589,354.940521 393.041321,354.975647 393.044922,354.959869 
	C391.696991,355.258575 390.346069,355.845032 388.993896,355.847839 
	C355.667358,355.917053 322.340698,355.924347 288.563660,355.865601 
z"/>
<path fill="#FBA531" opacity="1.000000" stroke="none" 
	d="
M197.524719,134.109985 
	C199.663635,138.803070 196.576050,141.805420 193.321320,144.885483 
	C194.368881,141.350906 195.787094,137.815826 197.524719,134.109985 
z"/>
<path fill="#F63B3B" opacity="1.000000" stroke="none" 
	d="
M360.865204,108.734581 
	C360.474274,108.692627 359.994141,108.383965 359.473938,107.775749 
	C359.881226,107.806755 360.328613,108.137314 360.865204,108.734581 
z"/>
<path fill="#FA8635" opacity="1.000000" stroke="none" 
	d="
M212.690170,113.030060 
	C212.846512,113.234718 212.707947,113.473701 212.358887,113.819412 
	C212.006287,113.590576 212.088577,113.303322 212.690170,113.030060 
z"/>
<path fill="#FC9131" opacity="1.000000" stroke="none" 
	d="
M228.975906,354.759552 
	C222.627121,354.788849 216.278336,354.818146 209.463348,354.786133 
	C208.998154,347.125305 208.888626,339.523865 209.024124,331.926788 
	C209.273254,317.959625 209.674652,303.995178 209.990677,290.029114 
	C210.035904,288.031311 209.959030,286.030701 209.954803,283.526215 
	C209.970947,283.021027 210.059998,282.928894 210.394302,282.830994 
	C213.677658,277.465668 218.364761,276.317078 224.156586,277.458923 
	C224.889328,279.562836 225.755295,281.378906 225.775894,283.204559 
	C225.911819,295.252686 225.865921,307.302856 225.702591,319.661194 
	C225.437134,323.901886 228.684464,321.078033 229.993652,322.598633 
	C229.653702,333.600128 229.314804,344.179840 228.975906,354.759552 
z"/>
<path fill="#F0B992" opacity="1.000000" stroke="none" 
	d="
M210.082428,274.317688 
	C215.741165,274.102173 221.406067,274.029724 228.001740,273.979492 
	C234.934113,273.957916 240.935745,273.914093 247.143661,274.029358 
	C247.542206,274.473694 247.734467,274.758911 247.465744,275.020386 
	C234.727631,274.996521 222.450500,274.996490 210.185638,274.920288 
	C210.197891,274.844147 210.078018,274.747009 210.078018,274.747009 
	C210.078018,274.747009 210.088623,274.460785 210.082428,274.317688 
z"/>
<path fill="#FC9131" opacity="1.000000" stroke="none" 
	d="
M209.924698,283.065369 
	C206.870834,280.620514 207.392227,277.914612 209.732880,274.932617 
	C210.078018,274.747009 210.197891,274.844147 210.109833,275.358978 
	C210.034500,278.225494 210.047256,280.577209 210.059998,282.928894 
	C210.059998,282.928894 209.970947,283.021027 209.924698,283.065369 
z"/>
<path fill="#EF3740" opacity="1.000000" stroke="none" 
	d="
M358.002441,287.989014 
	C365.158905,288.242798 370.903931,292.072693 371.570587,297.538361 
	C367.441284,292.630249 365.362427,291.415100 361.127502,291.908051 
	C370.430054,298.684998 371.507721,314.073334 361.732361,320.899689 
	C363.219086,320.677094 364.841583,320.463074 365.925293,319.584503 
	C373.223450,313.667725 376.485840,308.780792 371.960083,298.127350 
	C372.812439,298.619324 373.664825,299.111267 374.753357,299.802246 
	C375.000275,303.362701 375.010986,306.724182 374.955750,310.892517 
	C372.375549,314.827515 370.115143,318.214691 367.269043,321.004272 
	C364.865356,323.360260 361.782501,325.023285 358.776367,326.737061 
	C356.694946,324.984650 354.837433,323.488159 353.133789,321.688843 
	C354.044189,321.150848 354.800720,320.915649 355.637421,320.655548 
	C346.402008,314.843323 344.770325,303.295563 351.909851,293.402130 
	C352.197052,292.853607 352.287964,292.499023 352.378906,292.144409 
	C351.884583,292.391083 351.390320,292.637726 350.549408,292.921844 
	C348.837708,293.659912 347.472595,294.360535 346.084717,294.679871 
	C346.043365,293.535217 346.024780,292.771881 346.322632,291.821655 
	C350.426819,290.419495 354.214630,289.204254 358.002441,287.989014 
z"/>
<path fill="#F62C3C" opacity="1.000000" stroke="none" 
	d="
M359.000244,326.992981 
	C361.782501,325.023285 364.865356,323.360260 367.269043,321.004272 
	C370.115143,318.214691 372.375549,314.827515 374.957764,311.350677 
	C376.240326,311.077850 377.454987,311.153748 378.669617,311.229645 
	C378.263458,312.394592 377.813110,313.546387 377.460938,314.727448 
	C376.852295,316.768677 375.860260,318.818207 375.814362,320.881714 
	C375.674805,327.157928 375.812073,333.445892 376.032043,339.722595 
	C376.199249,344.493164 376.657288,349.253540 376.989197,354.430115 
	C370.971161,354.870361 364.949890,354.898895 358.492310,354.479309 
	C358.369934,348.926758 358.774048,343.825806 358.968323,338.716858 
	C359.116699,334.814148 358.999390,330.901306 359.000244,326.992981 
z"/>
<path fill="#C8263D" opacity="1.000000" stroke="none" 
	d="
M393.026794,354.476227 
	C392.831512,354.959991 392.609406,354.979462 392.050659,354.974640 
	C391.809357,352.624786 391.987244,350.299225 391.987885,347.973633 
	C392.002838,292.679688 391.994293,237.385757 392.014893,182.091827 
	C392.015686,179.941986 392.263062,177.792252 392.601746,175.274017 
	C392.872406,177.229050 392.992737,179.552521 392.993134,181.876007 
	C393.003113,239.254654 393.000427,296.633301 393.026794,354.476227 
z"/>
<path fill="#EF3740" opacity="1.000000" stroke="none" 
	d="
M388.797363,354.752869 
	C388.530609,354.955048 388.098877,354.993134 387.343903,354.991302 
	C387.557892,354.830536 388.095154,354.709656 388.797363,354.752869 
z"/>
<path fill="#000000" opacity="1.000000" stroke="none" 
	d="
M306.006866,114.776489 
	C306.441010,114.843452 306.875153,114.910408 307.637817,115.014778 
	C318.392426,118.523582 328.235535,123.051529 336.669525,130.828445 
	C336.989624,130.943558 336.991791,131.011932 337.126007,131.293060 
	C337.831940,131.696060 338.403656,131.817947 338.975372,131.939835 
	C342.195221,136.667709 345.543732,141.314514 348.590942,146.151169 
	C350.723846,149.536591 352.445160,153.181351 354.664154,156.886688 
	C356.130829,162.956955 357.335419,168.841446 358.408600,174.749771 
	C358.788849,176.843399 358.848999,178.995178 359.057556,181.978210 
	C357.889984,188.561707 357.127075,194.411057 355.435181,199.978104 
	C353.758667,205.494568 351.145660,210.726456 348.665955,216.191269 
	C348.265076,216.881119 348.141602,217.462845 347.760620,218.113907 
	C347.341736,218.487885 347.180359,218.792557 346.713135,219.187103 
	C345.939850,220.165771 345.472382,221.054581 344.975098,221.943787 
	C344.945282,221.944183 344.941986,222.003738 344.703796,222.057190 
	C344.156006,222.295731 344.002655,222.568649 343.969910,222.930359 
	C343.934174,222.931305 343.928864,223.002609 343.690338,223.052521 
	C343.139648,223.287399 342.991455,223.561157 342.963623,223.928650 
	C342.920074,223.933609 342.922180,224.021271 342.607666,224.170181 
	C338.523499,228.193359 334.753845,232.067627 330.621094,235.992462 
	C325.824707,238.444382 321.391479,240.845764 316.660461,243.177246 
	C315.907074,243.395096 315.451508,243.682831 314.990112,243.977341 
	C314.984314,243.984116 314.972260,243.997269 314.577942,244.025482 
	C302.810974,248.399063 290.960327,248.414169 278.934387,247.656555 
	C278.244476,247.268997 277.674866,247.156357 277.100922,246.972092 
	C277.096588,246.900467 276.953064,246.898636 276.825012,246.595398 
	C275.835297,246.268539 274.973602,246.244904 273.756012,246.067413 
	C271.273834,245.353134 269.147614,244.792709 266.691071,244.064774 
	C261.599701,241.260025 256.838593,238.622772 252.071472,235.953308 
	C252.065430,235.921097 252.000031,235.925842 251.882202,235.651184 
	C251.193008,235.236572 250.621613,235.096649 249.963348,234.719543 
	C249.596832,234.311600 249.317184,234.140793 248.966736,233.725922 
	C248.612717,233.318878 248.329514,233.155914 248.041870,232.975922 
	C248.037460,232.958893 248.002899,232.952423 247.935257,232.718323 
	C247.680298,232.182022 247.408981,232.024384 247.050171,231.985870 
	C247.046692,231.960419 246.997238,231.945374 246.874512,231.636169 
	C241.434525,224.969681 236.117264,218.612396 230.800018,212.255127 
	C229.188202,207.122757 226.810837,202.087891 226.141769,196.835434 
	C225.106155,188.705414 224.969742,180.426086 224.991882,172.211533 
	C225.002121,168.412201 226.286484,164.616302 227.339294,160.243851 
	C228.503708,156.779770 229.322067,153.890686 230.140411,151.001602 
	C230.470840,150.997818 230.722565,150.855133 230.955383,150.356186 
	C236.266220,143.325851 241.517258,136.512924 246.901672,129.378555 
	C249.816742,127.063095 252.598434,125.069069 255.698990,122.901031 
	C261.099792,120.561951 266.139130,118.289154 271.273834,116.257431 
	C278.685181,113.324852 286.496429,113.859627 295.060791,113.928688 
	C299.257690,114.214165 302.632294,114.495331 306.006866,114.776489 
M329.892334,130.476807 
	C329.691040,130.122559 329.402954,130.025436 328.388550,129.884125 
	C325.936584,128.237427 323.484619,126.590714 320.751221,124.255600 
	C315.483856,122.576691 310.216492,120.897774 304.101074,119.058640 
	C302.031097,118.740189 299.956696,118.447792 297.891998,118.098213 
	C292.528015,117.190056 287.134613,115.589844 281.099060,119.009666 
	C271.576324,118.929207 263.286774,122.201004 255.310669,128.098831 
	C252.196594,131.031952 249.082535,133.965073 245.471237,137.090363 
	C245.291885,137.386078 245.112534,137.681808 244.992157,137.999146 
	C244.992157,137.999146 244.961792,137.944183 244.344589,138.196335 
	C243.207153,139.776703 242.069733,141.357071 241.003372,142.991684 
	C241.003372,142.991684 240.941193,142.926025 240.225616,143.030350 
	C228.438370,157.217667 226.526688,173.817032 228.735474,191.281799 
	C230.612091,206.120239 237.718597,218.228622 249.281998,228.624451 
	C251.841690,230.418365 254.401367,232.212296 257.273163,234.645599 
	C260.493469,236.134521 263.713806,237.623459 267.289246,239.762329 
	C276.845032,243.656479 286.780945,244.768250 297.807587,243.963394 
	C300.216003,243.322418 302.624390,242.681427 305.792603,241.997284 
	C307.559631,241.249451 309.326630,240.501602 311.757202,239.885773 
	C313.227905,239.697556 314.926636,239.918930 316.129272,239.249298 
	C320.989532,236.543274 325.696869,233.562668 330.487854,230.681503 
	C330.487854,230.681503 330.514160,230.678635 331.075043,230.260605 
	C333.477875,228.149628 336.094849,226.235474 338.246735,223.893890 
	C348.020569,213.258514 353.467651,200.503510 354.802246,186.282822 
	C356.309937,170.218002 351.879700,155.475159 342.069763,142.653290 
	C339.002502,138.644287 334.735413,135.553284 331.015411,131.976471 
	C331.015411,131.976471 330.949921,131.972687 330.830139,131.505615 
	C330.644928,131.213272 330.380524,131.046204 330.032867,130.972885 
	C330.032867,130.972885 330.002502,130.963455 329.892334,130.476807 
z"/>
<path fill="#F6383A" opacity="1.000000" stroke="none" 
	d="
M347.018982,219.097229 
	C347.180359,218.792557 347.341736,218.487885 347.961609,217.913269 
	C348.594513,217.123260 348.768951,216.603210 348.943390,216.083145 
	C351.145660,210.726456 353.758667,205.494568 355.435181,199.978104 
	C357.127075,194.411057 357.889984,188.561707 359.132263,182.414673 
	C359.771698,183.051544 360.964294,184.208328 360.815369,185.153809 
	C355.483826,219.005371 359.033417,253.093979 358.001617,287.521606 
	C354.214630,289.204254 350.426819,290.419495 346.024841,291.644470 
	C344.790100,290.413483 343.639954,289.174500 343.635803,287.931702 
	C343.610840,280.456787 344.164185,272.970612 343.918518,265.508148 
	C343.615387,256.302032 342.699188,247.116776 342.109497,237.918564 
	C342.036987,236.787689 341.905914,235.170029 342.545959,234.564987 
	C346.235596,231.077271 345.897430,227.644257 342.922180,224.021271 
	C342.922180,224.021271 342.920074,223.933609 343.154419,223.815491 
	C343.626770,223.510864 343.806793,223.279282 343.928864,223.002609 
	C343.928864,223.002609 343.934174,222.931305 344.162903,222.816467 
	C344.633148,222.514740 344.816589,222.282120 344.941986,222.003738 
	C344.941986,222.003738 344.945282,221.944183 345.290405,221.871216 
	C346.096680,220.897888 346.557831,219.997559 347.018982,219.097229 
z"/>
<path fill="#FA8635" opacity="1.000000" stroke="none" 
	d="
M230.359741,212.219238 
	C236.117264,218.612396 241.434525,224.969681 246.471252,231.662994 
	C245.138458,232.971481 243.256317,233.870529 243.162796,234.927780 
	C242.268906,245.034058 241.855728,255.183563 240.922577,265.285339 
	C240.470749,270.176605 241.845154,273.165894 246.937378,273.870270 
	C240.935745,273.914093 234.934113,273.957916 228.468079,273.935852 
	C227.674286,261.769531 227.276154,249.670486 227.041351,237.568268 
	C226.900772,230.322571 226.879395,223.066864 227.146362,215.828278 
	C227.192368,214.580902 228.951599,213.396713 230.359741,212.219238 
z"/>
<path fill="#FA8635" opacity="1.000000" stroke="none" 
	d="
M229.797333,151.092743 
	C229.322067,153.890686 228.503708,156.779770 227.361206,159.842224 
	C224.963837,156.283722 227.380020,153.780594 229.797333,151.092743 
z"/>
<path fill="#F64B3B" opacity="1.000000" stroke="none" 
	d="
M338.783508,131.744324 
	C338.403656,131.817947 337.831940,131.696060 337.160217,131.294067 
	C337.570679,131.192245 338.081146,131.370529 338.783508,131.744324 
z"/>
<path fill="#FA6237" opacity="1.000000" stroke="none" 
	d="
M305.862976,114.452026 
	C302.632294,114.495331 299.257690,114.214165 295.444397,113.855209 
	C295.001129,113.392395 294.996613,113.007378 294.990723,112.334564 
	C298.565948,112.740372 302.142517,113.433960 305.862976,114.452026 
z"/>
<path fill="#FA6237" opacity="1.000000" stroke="none" 
	d="
M293.987793,354.000000 
	C292.189301,354.173218 290.390778,354.346466 288.285309,354.745544 
	C286.263214,354.963257 284.548096,354.955139 282.413208,354.455505 
	C281.673553,348.873962 282.185333,343.528015 280.726562,338.788544 
	C279.829254,335.873108 280.180542,334.537506 281.169312,331.894257 
	C282.497650,328.343109 281.803925,324.001007 281.751587,320.001404 
	C281.742706,319.323761 280.594818,318.661041 279.955627,317.638916 
	C278.794006,314.191101 277.384644,312.805084 274.968445,316.376831 
	C273.519135,318.519257 272.182983,318.324493 270.989899,316.025970 
	C270.260590,314.621002 269.329834,313.320587 268.431366,311.879944 
	C273.162750,310.290161 277.630920,308.788849 282.712158,307.081512 
	C284.548828,301.439636 283.250366,295.928528 278.948792,293.700073 
	C278.622131,293.265106 278.383636,293.071503 278.091553,292.699677 
	C278.076813,292.473572 278.057495,292.020813 278.299255,291.778107 
	C282.212219,288.334625 283.387268,284.282959 283.053375,279.500122 
	C282.787964,275.697876 283.175720,271.852234 282.958282,268.043884 
	C282.641998,262.503571 284.886597,256.358917 279.341156,251.901947 
	C278.808960,251.474228 279.117889,250.000000 279.498322,249.006866 
	C286.750854,248.374084 293.197693,248.963303 297.643219,253.707413 
	C297.053986,257.410583 296.212555,260.708984 296.069641,264.037354 
	C295.820007,269.850891 295.665192,275.708130 296.103027,281.499298 
	C296.471680,286.375641 295.418915,289.508331 289.660187,289.886719 
	C288.558472,290.307709 287.800568,290.649109 286.869202,291.175934 
	C287.115265,291.879089 287.534821,292.396820 288.014954,292.913269 
	C288.075592,292.911926 288.087006,293.032623 288.066864,293.419495 
	C289.349762,297.330444 291.465576,300.788940 291.756470,304.394623 
	C292.147156,309.237549 294.667023,312.176941 298.009277,314.961548 
	C298.032562,314.966156 298.041901,315.013184 297.983856,315.296112 
	C297.618042,316.053833 297.310242,316.528625 296.594299,317.004211 
	C293.801178,316.935120 291.731598,317.208221 292.134979,320.449341 
	C292.513062,323.487244 293.017181,326.523499 293.154785,329.574524 
	C293.521820,337.712311 293.721558,345.857666 293.987793,354.000000 
z"/>
<path fill="#FB7C34" opacity="1.000000" stroke="none" 
	d="
M247.143661,274.029358 
	C241.845154,273.165894 240.470749,270.176605 240.922577,265.285339 
	C241.855728,255.183563 242.268906,245.034058 243.162796,234.927780 
	C243.256317,233.870529 245.138458,232.971481 246.593994,231.972198 
	C246.997238,231.945374 247.046692,231.960419 247.173218,232.175385 
	C247.494766,232.626968 247.729141,232.814331 248.002899,232.952423 
	C248.002899,232.952423 248.037460,232.958893 248.172302,233.171539 
	C248.511536,233.628143 248.755005,233.823425 249.037537,233.970001 
	C249.317184,234.140793 249.596832,234.311600 250.150024,234.931763 
	C250.949066,235.562698 251.474548,235.744278 252.000031,235.925842 
	C252.000031,235.925842 252.065430,235.921097 252.126007,236.325134 
	C252.849380,240.898239 253.934189,245.052261 254.083740,249.239670 
	C254.362579,257.046722 254.175888,264.874817 254.015244,272.690704 
	C253.960831,275.338501 253.400177,277.975891 252.902435,281.969330 
	C254.051849,284.005127 256.030609,287.509857 257.781677,291.260254 
	C255.719864,294.378357 253.885742,297.250763 252.032181,300.476379 
	C252.198959,301.843994 252.856430,303.509277 252.496719,303.769745 
	C249.666245,305.819305 252.309418,307.319305 252.631042,309.295532 
	C252.293839,310.721649 252.151596,311.862610 251.848999,313.366394 
	C251.511887,315.673492 251.060394,317.639099 251.208939,319.558228 
	C251.687057,325.735840 252.473846,331.889313 252.974701,338.065613 
	C253.425949,343.630066 253.657425,349.212341 253.985825,354.786774 
	C250.628174,354.814209 247.270523,354.841675 243.456970,354.382385 
	C242.674622,344.960358 241.997513,336.019104 242.149887,327.092010 
	C242.245178,321.509552 237.523621,316.389008 240.970367,310.551056 
	C242.518387,307.929077 243.517303,304.982880 244.893646,301.896118 
	C241.577972,300.831909 240.259079,299.378357 242.374649,296.026855 
	C243.211121,294.701691 241.875763,292.179962 242.232620,290.339417 
	C242.866318,287.071136 241.705994,282.995514 245.947433,281.320221 
	C247.049454,281.475220 247.989380,281.323120 248.929291,281.170990 
	C248.595093,279.128723 248.260910,277.086426 247.926727,275.044159 
	C247.734467,274.758911 247.542206,274.473694 247.143661,274.029358 
M242.980072,311.337891 
	C243.077362,312.109314 243.174652,312.880707 243.360138,314.351349 
	C245.159424,310.636200 245.159424,310.636200 242.980072,311.337891 
M246.502853,286.470612 
	C246.502853,286.470612 246.520355,286.514221 246.502853,286.470612 
z"/>
<path fill="#FA8635" opacity="1.000000" stroke="none" 
	d="
M245.785324,281.013092 
	C241.705994,282.995514 242.866318,287.071136 242.232620,290.339417 
	C241.875763,292.179962 243.211121,294.701691 242.374649,296.026855 
	C240.259079,299.378357 241.577972,300.831909 244.893646,301.896118 
	C243.517303,304.982880 242.518387,307.929077 240.970367,310.551056 
	C237.523621,316.389008 242.245178,321.509552 242.149887,327.092010 
	C241.997513,336.019104 242.674622,344.960358 243.000641,354.341980 
	C238.635559,354.816376 234.270905,354.844421 229.441071,354.815979 
	C229.314804,344.179840 229.653702,333.600128 230.311401,322.520813 
	C231.460312,321.065613 232.290451,320.110046 233.114960,318.671967 
	C233.083649,306.276550 232.990387,294.363007 233.115265,282.451721 
	C233.131409,280.912292 234.276031,279.384766 235.335114,277.920837 
	C239.284576,278.419403 243.450821,276.682770 245.785324,281.013092 
z"/>
<path fill="#FA6A36" opacity="1.000000" stroke="none" 
	d="
M279.973145,317.991455 
	C280.594818,318.661041 281.742706,319.323761 281.751587,320.001404 
	C281.803925,324.001007 282.497650,328.343109 281.169312,331.894257 
	C280.180542,334.537506 279.829254,335.873108 280.726562,338.788544 
	C282.185333,343.528015 281.673553,348.873962 281.985840,354.417480 
	C280.596100,354.904053 279.213959,354.937103 277.146912,354.740570 
	C274.976379,354.638062 273.490784,354.765167 272.005188,354.892273 
	C270.283081,354.887848 268.560974,354.883392 266.416016,354.421997 
	C265.669861,350.668976 264.537811,347.203522 265.185486,344.110779 
	C266.705048,336.855103 264.009430,330.538116 262.472717,323.996063 
	C266.057404,323.995758 269.189545,324.152435 272.297272,323.944275 
	C275.510864,323.729004 278.487854,322.880768 278.964783,318.678650 
	C278.966156,318.458252 278.889130,318.024231 279.160095,318.015076 
	C279.611786,318.001099 279.792450,317.996277 279.973145,317.991455 
z"/>
<path fill="#FB7435" opacity="1.000000" stroke="none" 
	d="
M262.009460,323.992798 
	C264.009430,330.538116 266.705048,336.855103 265.185486,344.110779 
	C264.537811,347.203522 265.669861,350.668976 265.988068,354.374054 
	C262.290680,354.821899 258.598358,354.860779 254.445938,354.843201 
	C253.657425,349.212341 253.425949,343.630066 252.974701,338.065613 
	C252.473846,331.889313 251.687057,325.735840 251.208939,319.558228 
	C251.060394,317.639099 251.511887,315.673492 252.103531,313.489197 
	C253.031067,313.486755 253.543732,313.724304 254.028503,313.980896 
	C254.000610,314.000000 254.051163,313.955322 254.050354,314.298706 
	C254.711365,315.405640 255.373169,316.169159 256.028625,316.947021 
	C256.022308,316.961334 256.053223,316.965820 256.164856,317.173462 
	C256.469574,317.641113 256.717621,317.828461 257.030762,317.951599 
	C257.040894,317.960083 257.056396,317.981476 257.170410,318.188965 
	C257.483826,318.652954 257.735748,318.837952 258.020752,318.974487 
	C258.001221,318.997559 258.046967,318.958405 258.167511,319.166412 
	C258.488831,319.634186 258.740234,319.828400 259.031769,319.978577 
	C259.021210,320.000122 259.056305,319.961365 259.110413,320.275208 
	C260.112793,321.723633 261.061127,322.858215 262.009460,323.992798 
z"/>
<path fill="#EF7241" opacity="1.000000" stroke="none" 
	d="
M272.419678,354.936646 
	C273.490784,354.765167 274.976379,354.638062 276.731995,354.715118 
	C275.612762,354.939819 274.223480,354.960419 272.419678,354.936646 
z"/>
<path fill="#F64B3B" opacity="1.000000" stroke="none" 
	d="
M316.958252,243.247131 
	C321.391479,240.845764 325.824707,238.444382 330.601257,236.417145 
	C330.629333,239.899200 330.068848,243.004974 330.042023,246.115372 
	C329.936432,258.349274 330.215790,270.590546 329.883881,282.816376 
	C329.763916,287.234009 331.028320,290.101562 334.665894,291.877167 
	C333.663574,292.222290 333.023834,292.478271 332.384064,292.734253 
	C335.307983,296.689117 333.047729,300.005463 331.202942,303.460724 
	C330.914978,304.000092 331.612946,305.065887 331.892639,306.300201 
	C331.343170,309.453064 331.367828,312.544556 330.040161,314.860962 
	C327.377045,319.507202 327.751770,322.921295 331.330292,324.651642 
	C330.508423,335.312439 329.756165,345.070465 329.003876,354.828491 
	C323.311829,354.834045 317.619812,354.839630 311.464111,354.359650 
	C310.999084,342.914856 310.997711,331.955597 310.982056,320.638672 
	C310.533752,318.626740 309.581665,316.905792 309.783997,315.333374 
	C310.109161,312.806549 311.197357,310.377838 311.990479,307.543945 
	C312.664795,306.393921 313.311798,305.607697 314.198120,304.530609 
	C317.070343,310.597107 319.681091,316.111359 322.291138,321.624115 
	C327.498718,319.267975 326.556824,319.650085 324.418549,315.038025 
	C320.873596,307.391846 318.703094,299.108459 315.894012,290.725433 
	C314.895264,288.503815 313.107819,286.629761 313.152161,284.800018 
	C313.481903,271.190674 310.996521,257.437775 314.972260,243.997269 
	C314.972260,243.997269 314.984314,243.984116 315.257751,243.956573 
	C316.006897,243.701736 316.482574,243.474442 316.958252,243.247131 
z"/>
<path fill="#F6413B" opacity="1.000000" stroke="none" 
	d="
M335.028442,291.787994 
	C331.028320,290.101562 329.763916,287.234009 329.883881,282.816376 
	C330.215790,270.590546 329.936432,258.349274 330.042023,246.115372 
	C330.068848,243.004974 330.629333,239.899200 330.964417,236.366608 
	C334.753845,232.067627 338.523499,228.193359 342.607666,224.170181 
	C345.897430,227.644257 346.235596,231.077271 342.545959,234.564987 
	C341.905914,235.170029 342.036987,236.787689 342.109497,237.918564 
	C342.699188,247.116776 343.615387,256.302032 343.918518,265.508148 
	C344.164185,272.970612 343.610840,280.456787 343.635803,287.931702 
	C343.639954,289.174500 344.790100,290.413483 345.708435,291.831390 
	C346.024780,292.771881 346.043365,293.535217 346.010010,295.052124 
	C344.969147,297.450378 343.246277,299.041412 343.121399,300.749268 
	C342.643402,307.287384 341.828491,314.096405 347.601105,318.946472 
	C346.018250,319.173889 344.816193,319.381500 344.009552,319.520782 
	C344.009552,331.663025 344.009552,343.251068 344.009552,354.839111 
	C339.317261,354.865784 334.624939,354.892456 329.468262,354.873810 
	C329.756165,345.070465 330.508423,335.312439 331.330292,324.651642 
	C327.751770,322.921295 327.377045,319.507202 330.040161,314.860962 
	C331.367828,312.544556 331.343170,309.453064 331.928040,306.287048 
	C331.925873,305.861938 331.971649,305.923706 332.157501,305.815308 
	C332.586182,305.520813 332.709412,305.274902 332.848114,304.725189 
	C333.048431,304.307129 333.113678,304.133057 333.340942,303.830139 
	C333.697754,303.499146 333.836334,303.263885 333.971924,302.612732 
	C334.698975,300.311127 335.693573,298.432709 335.941986,296.460266 
	C336.130310,294.964905 335.367828,293.349823 335.028442,291.787994 
z"/>
<path fill="#F95638" opacity="1.000000" stroke="none" 
	d="
M310.996338,320.996338 
	C310.997711,331.955597 310.999084,342.914856 310.997681,354.318481 
	C305.554199,354.662415 300.113525,354.561981 294.330322,354.230774 
	C293.721558,345.857666 293.521820,337.712311 293.154785,329.574524 
	C293.017181,326.523499 292.513062,323.487244 292.134979,320.449341 
	C291.731598,317.208221 293.801178,316.935120 296.656555,317.367310 
	C297.425354,318.659546 297.653351,319.619385 298.033783,320.514465 
	C300.221008,325.660889 302.095551,325.975220 306.556213,322.414062 
	C307.690552,321.508453 309.498108,321.446136 310.996338,320.996338 
z"/>
<path fill="#F6383A" opacity="1.000000" stroke="none" 
	d="
M344.471252,354.887909 
	C344.009552,343.251068 344.009552,331.663025 344.009552,319.520782 
	C344.816193,319.381500 346.018250,319.173889 347.639771,318.954956 
	C348.059235,318.943665 348.065125,319.021545 348.178528,319.205200 
	C348.472931,319.619568 348.698425,319.792053 349.275330,320.032776 
	C350.714813,320.770020 351.847382,321.380829 352.979950,321.991638 
	C354.837433,323.488159 356.694946,324.984650 358.776367,326.737061 
	C358.999390,330.901306 359.116699,334.814148 358.968323,338.716858 
	C358.774048,343.825806 358.369934,348.926758 358.025604,354.435455 
	C353.641083,354.872070 349.287018,354.904388 344.471252,354.887909 
z"/>
<path fill="#000000" opacity="1.000000" stroke="none" 
	d="
M233.120575,319.154510 
	C232.290451,320.110046 231.460312,321.065613 230.312439,322.098999 
	C228.684464,321.078033 225.437134,323.901886 226.100586,319.412720 
	C226.796249,305.644897 226.964539,292.434204 226.903763,279.224579 
	C226.900589,278.536957 224.945267,277.858337 223.898773,277.175507 
	C218.364761,276.317078 213.677658,277.465668 210.394302,282.830994 
	C210.047256,280.577209 210.034500,278.225494 210.097565,275.435120 
	C222.450500,274.996490 234.727631,274.996521 247.465729,275.020386 
	C248.260910,277.086426 248.595093,279.128723 248.929291,281.170990 
	C247.989380,281.323120 247.049454,281.475220 245.947433,281.320221 
	C243.450821,276.682770 239.284576,278.419403 235.112778,277.597534 
	C231.148193,276.370758 232.021393,278.821594 232.016769,280.412323 
	C231.983063,292.016785 231.963333,303.621643 232.048447,315.225555 
	C232.058060,316.537781 232.746780,317.844971 233.120575,319.154510 
z"/>
<path fill="#F0B992" opacity="1.000000" stroke="none" 
	d="
M224.156586,277.458923 
	C224.945267,277.858337 226.900589,278.536957 226.903763,279.224579 
	C226.964539,292.434204 226.796249,305.644897 226.277267,319.103851 
	C225.865921,307.302856 225.911819,295.252686 225.775894,283.204559 
	C225.755295,281.378906 224.889328,279.562836 224.156586,277.458923 
z"/>
<path fill="#000000" opacity="1.000000" stroke="none" 
	d="
M371.922821,298.116211 
	C376.485840,308.780792 373.223450,313.667725 365.925293,319.584503 
	C364.841583,320.463074 363.219086,320.677094 361.732361,320.899689 
	C371.507721,314.073334 370.430054,298.684998 361.127502,291.908051 
	C365.362427,291.415100 367.441284,292.630249 371.525452,297.918030 
	C371.846619,298.037720 371.885559,298.105042 371.922821,298.116211 
z"/>
<path fill="#000000" opacity="1.000000" stroke="none" 
	d="
M353.133789,321.688843 
	C351.847382,321.380829 350.714813,320.770020 349.220215,319.807068 
	C348.674347,319.163300 348.409973,319.018860 348.065125,319.021545 
	C348.065125,319.021545 348.059235,318.943665 348.020569,318.935181 
	C341.828491,314.096405 342.643402,307.287384 343.121399,300.749268 
	C343.246277,299.041412 344.969147,297.450378 346.032806,295.433411 
	C347.472595,294.360535 348.837708,293.659912 350.747314,293.107239 
	C351.432434,293.368774 351.572998,293.482422 351.713593,293.596069 
	C344.770325,303.295563 346.402008,314.843323 355.637421,320.655548 
	C354.800720,320.915649 354.044189,321.150848 353.133789,321.688843 
z"/>
<path fill="#000000" opacity="1.000000" stroke="none" 
	d="
M351.093933,293.069763 
	C351.390320,292.637726 351.884583,292.391083 352.378906,292.144409 
	C352.287964,292.499023 352.197052,292.853607 351.909851,293.402130 
	C351.572998,293.482422 351.432434,293.368774 351.093933,293.069763 
z"/>
<path fill="#FB7135" opacity="1.000000" stroke="none" 
	d="
M266.934113,239.112381 
	C263.713806,237.623459 260.493469,236.134521 257.128876,233.938629 
	C258.410095,229.792175 256.464294,226.609894 256.307404,223.327530 
	C256.057922,218.107712 256.923859,212.845703 256.962677,207.598907 
	C257.084808,191.092728 256.810120,174.587997 258.843414,158.138565 
	C259.208252,155.186768 257.612579,152.043823 257.348877,148.952728 
	C256.760834,142.059799 256.442413,135.143860 256.014130,128.237305 
	C263.286774,122.201004 271.576324,118.929207 281.549500,119.228348 
	C282.005432,119.626961 282.010925,119.806892 281.664001,120.050476 
	C278.837769,121.745781 276.364014,123.377434 273.454193,125.296684 
	C275.534698,126.710663 276.682709,127.490891 277.698517,128.181290 
	C276.723541,130.742920 275.127136,132.995850 275.150024,135.232224 
	C275.225952,142.652847 273.769623,150.454010 278.638855,157.054611 
	C276.995941,157.175735 275.630310,156.993774 274.432495,157.360336 
	C272.737946,157.878845 271.167389,158.802353 269.543823,159.552750 
	C271.031311,160.384781 272.518829,161.216812 273.920135,162.364838 
	C273.418365,163.394272 272.613647,164.127106 272.648102,164.818100 
	C272.956116,170.992645 273.258179,177.175095 273.868988,183.324738 
	C274.448944,189.163834 276.655426,194.960693 273.386108,200.742432 
	C272.809937,201.761398 273.352020,203.357330 273.146118,204.649948 
	C271.702423,213.714798 275.889130,223.123459 271.478088,232.007187 
	C271.346527,232.272141 271.311096,232.719376 271.445862,232.962280 
	C274.411713,238.306885 270.744812,238.758499 266.934113,239.112381 
z"/>
<path fill="#FB7C34" opacity="1.000000" stroke="none" 
	d="
M255.662399,128.168060 
	C256.442413,135.143860 256.760834,142.059799 257.348877,148.952728 
	C257.612579,152.043823 259.208252,155.186768 258.843414,158.138565 
	C256.810120,174.587997 257.084808,191.092728 256.962677,207.598907 
	C256.923859,212.845703 256.057922,218.107712 256.307404,223.327530 
	C256.464294,226.609894 258.410095,229.792175 256.972839,233.618942 
	C254.401367,232.212296 251.841690,230.418365 249.119995,227.937134 
	C247.439789,224.727890 245.876923,222.231430 244.421402,219.673843 
	C243.640549,218.301727 243.195053,216.726105 242.337402,215.412643 
	C239.352600,210.841461 238.161346,206.167999 240.847015,201.006546 
	C241.069244,200.579468 240.450867,199.773376 240.382034,199.126465 
	C240.058334,196.083542 239.509033,193.029816 239.561874,189.989014 
	C239.665329,184.036911 241.594330,177.663696 240.031860,172.255142 
	C238.254440,166.102570 243.014053,160.217529 238.940048,154.021561 
	C237.443573,151.745621 240.151230,146.705353 240.941193,142.926025 
	C240.941193,142.926025 241.003372,142.991684 241.365875,142.972565 
	C245.583740,143.076569 244.914490,140.279114 244.961792,137.944183 
	C244.961792,137.944183 244.992157,137.999146 245.169907,137.843750 
	C245.554596,137.424957 245.761536,137.161575 245.968460,136.898193 
	C249.082535,133.965073 252.196594,131.031952 255.662399,128.168060 
z"/>
<path fill="#F6413B" opacity="1.000000" stroke="none" 
	d="
M331.017548,132.042068 
	C334.735413,135.553284 339.002502,138.644287 342.069763,142.653290 
	C351.879700,155.475159 356.309937,170.218002 354.802246,186.282822 
	C353.467651,200.503510 348.020569,213.258514 338.246735,223.893890 
	C336.094849,226.235474 333.477875,228.149628 330.748779,230.076141 
	C331.280273,226.912766 332.854858,223.940308 332.881927,220.953842 
	C333.089539,198.029556 333.041443,175.102432 332.970490,152.176483 
	C332.947937,144.884293 333.126251,143.002563 335.417114,138.491669 
	C333.745667,138.491669 332.215149,138.491669 331.017548,138.491669 
	C331.017548,136.144653 331.017548,134.093369 331.017548,132.042068 
z"/>
<path fill="#F85D38" opacity="1.000000" stroke="none" 
	d="
M282.016449,119.986839 
	C282.010925,119.806892 282.005432,119.626961 281.993652,119.176903 
	C287.134613,115.589844 292.528015,117.190056 297.891998,118.098213 
	C299.956696,118.447792 302.031097,118.740189 304.244873,119.323135 
	C303.094849,120.886040 300.804047,122.095367 300.678711,123.498184 
	C300.115967,129.795883 300.394867,136.166992 299.880829,142.471725 
	C299.692902,144.776550 298.142303,146.967926 297.228729,149.217316 
	C296.945953,149.913513 296.315155,151.045090 296.535919,151.257385 
	C297.120789,151.819733 298.102203,152.288177 298.892151,152.240143 
	C299.939941,152.176437 300.955750,151.587143 302.437378,151.064102 
	C302.437378,152.460480 302.644928,153.421753 302.393158,154.242050 
	C301.903809,155.836502 301.156677,157.351852 300.516357,158.899979 
	C302.549133,159.214142 304.574310,159.678513 306.617767,159.782379 
	C307.725861,159.838699 308.865112,159.280899 309.995178,159.331940 
	C310.001709,160.106201 310.003418,160.548645 309.634399,161.153534 
	C308.466553,161.527939 307.636200,162.004257 306.877655,161.909012 
	C301.867676,161.279846 300.695099,163.712433 300.913269,168.286224 
	C301.244781,175.235001 300.966461,182.211472 301.027374,189.175476 
	C301.044525,191.134216 302.246613,194.042847 301.358124,194.886551 
	C297.021362,199.004654 298.152100,203.028702 300.414612,207.448807 
	C300.788391,208.179047 300.169739,209.369293 300.167572,210.347321 
	C300.144379,220.704529 300.153198,231.061813 300.153198,241.287399 
	C301.630737,241.515427 303.331757,241.777924 305.032806,242.040436 
	C302.624390,242.681427 300.216003,243.322418 297.243469,243.548355 
	C293.254578,242.555771 289.829773,241.978210 287.216492,241.537521 
	C287.481415,237.959198 287.624786,234.443573 288.022705,230.956985 
	C289.036774,222.071579 285.313660,212.654144 291.315796,203.978989 
	C291.825867,201.863556 292.172699,200.062973 292.179504,198.261124 
	C292.221039,187.282623 292.269806,176.302719 292.121765,165.325897 
	C292.079559,162.195984 292.304321,159.684647 296.146637,158.922226 
	C294.353149,158.922226 292.559662,158.922226 290.597260,158.937653 
	C290.428345,158.953079 290.116150,158.820389 289.847961,158.627441 
	C288.721222,158.263199 287.862671,158.091904 287.041382,157.545166 
	C289.163025,156.007706 291.247406,154.845642 293.330048,153.684570 
	C292.641571,152.520447 291.656403,145.292587 291.947449,143.301865 
	C291.995300,142.974503 292.013733,142.634308 291.984528,142.305496 
	C291.275299,134.322906 293.964722,126.026482 289.663330,118.152184 
	C287.156830,118.753555 284.586639,119.370201 282.016449,119.986839 
z"/>
<path fill="#F76737" opacity="1.000000" stroke="none" 
	d="
M290.995361,204.293259 
	C285.313660,212.654144 289.036774,222.071579 288.022705,230.956985 
	C287.624786,234.443573 287.481415,237.959198 287.216492,241.537521 
	C289.829773,241.978210 293.254578,242.555771 296.838745,243.477203 
	C286.780945,244.768250 276.845032,243.656479 267.111694,239.437347 
	C270.744812,238.758499 274.411713,238.306885 271.445862,232.962280 
	C271.311096,232.719376 271.346527,232.272141 271.478088,232.007187 
	C275.889130,223.123459 271.702423,213.714798 273.146118,204.649948 
	C273.352020,203.357330 272.809937,201.761398 273.386108,200.742432 
	C276.655426,194.960693 274.448944,189.163834 273.868988,183.324738 
	C273.258179,177.175095 272.956116,170.992645 272.648102,164.818100 
	C272.613647,164.127106 273.418365,163.394272 274.349182,162.352844 
	C279.175690,162.026306 283.487000,162.027740 287.848267,162.492554 
	C287.893372,175.257294 287.837677,187.559189 287.968140,199.859116 
	C287.980164,200.992065 289.178925,202.112411 289.989197,203.448090 
	C290.432983,203.869461 290.714172,204.081360 290.995361,204.293259 
z"/>
<path fill="#F94838" opacity="1.000000" stroke="none" 
	d="
M331.016479,132.009277 
	C331.017548,134.093369 331.017548,136.144653 331.017548,138.491669 
	C332.215149,138.491669 333.745667,138.491669 335.417114,138.491669 
	C333.126251,143.002563 332.947937,144.884293 332.970490,152.176483 
	C333.041443,175.102432 333.089539,198.029556 332.881927,220.953842 
	C332.854858,223.940308 331.280273,226.912766 330.468323,230.285156 
	C330.514160,230.678635 330.487854,230.681503 330.113770,230.545074 
	C328.494324,230.605957 327.248993,230.803284 325.633118,230.983582 
	C323.931488,230.104004 321.698273,229.446167 321.446960,228.338608 
	C320.818115,225.567352 321.013153,222.592239 321.009460,219.698761 
	C320.985931,201.265717 321.115112,182.831360 320.919128,164.400375 
	C320.867706,159.564880 319.813843,154.742920 319.298187,149.906464 
	C319.216736,149.142593 319.372437,148.244583 319.719177,147.561096 
	C322.601501,141.878815 323.854279,136.250107 320.247711,130.297089 
	C319.364471,128.839157 319.398621,126.825432 319.348450,125.053299 
	C320.134857,125.007561 320.583771,124.975777 321.032654,124.944000 
	C323.484619,126.590714 325.936584,128.237427 328.845398,130.194580 
	C329.505066,130.704605 329.738464,130.857407 330.002502,130.963455 
	C330.002502,130.963455 330.032867,130.972885 330.152069,131.180481 
	C330.457123,131.629791 330.683350,131.824661 330.949921,131.972687 
	C330.949921,131.972687 331.015411,131.976471 331.016479,132.009277 
z"/>
<path fill="#F6593A" opacity="1.000000" stroke="none" 
	d="
M310.982056,320.638672 
	C309.498108,321.446136 307.690552,321.508453 306.556213,322.414062 
	C302.095551,325.975220 300.221008,325.660889 298.033783,320.514465 
	C297.653351,319.619385 297.425354,318.659546 297.064697,317.366516 
	C297.310242,316.528625 297.618042,316.053833 298.297302,315.453552 
	C299.661774,317.446381 300.654785,319.564667 302.060242,322.562836 
	C304.004272,320.502563 305.631042,318.778503 307.430054,316.871918 
	C302.769318,314.822388 294.805756,296.806610 295.555725,291.580688 
	C293.680084,290.981506 291.842072,290.394318 290.004028,289.807129 
	C295.418915,289.508331 296.471680,286.375641 296.103027,281.499298 
	C295.665192,275.708130 295.820007,269.850891 296.069641,264.037354 
	C296.212555,260.708984 297.053986,257.410583 297.643219,253.707413 
	C293.197693,248.963303 286.750854,248.374084 279.483948,248.995377 
	C279.007599,248.988617 278.985565,248.961349 279.001770,248.703796 
	C279.030182,248.274673 279.042450,248.103073 279.054718,247.931488 
	C290.960327,248.414169 302.810974,248.399063 314.577942,244.025482 
	C310.996521,257.437775 313.481903,271.190674 313.152161,284.800018 
	C313.107819,286.629761 314.895264,288.503815 315.473358,290.667908 
	C312.918793,290.978485 310.725311,290.978485 307.032166,290.978485 
	C315.405884,297.249176 310.633820,303.483398 308.513184,309.836609 
	C310.151093,308.920807 311.057098,308.414246 311.963135,307.907654 
	C311.197357,310.377838 310.109161,312.806549 309.783997,315.333374 
	C309.581665,316.905792 310.533752,318.626740 310.982056,320.638672 
z"/>
<path fill="#F95638" opacity="1.000000" stroke="none" 
	d="
M305.412720,242.018860 
	C303.331757,241.777924 301.630737,241.515427 300.153198,241.287399 
	C300.153198,231.061813 300.144379,220.704529 300.167572,210.347321 
	C300.169739,209.369293 300.788391,208.179047 300.414612,207.448807 
	C298.152100,203.028702 297.021362,199.004654 301.358124,194.886551 
	C302.246613,194.042847 301.044525,191.134216 301.027374,189.175476 
	C300.966461,182.211472 301.244781,175.235001 300.913269,168.286224 
	C300.695099,163.712433 301.867676,161.279846 306.877655,161.909012 
	C307.636200,162.004257 308.466553,161.527939 309.862640,161.447571 
	C310.307739,169.584946 310.058044,177.590317 310.020569,185.596649 
	C309.949493,200.789017 310.000000,215.981949 310.000000,231.204773 
	C308.735687,231.289963 307.208344,231.392883 305.680969,231.495804 
	C306.511047,233.360367 307.819855,234.059875 308.954163,234.975525 
	C310.069702,235.875992 311.008240,236.995804 311.916565,238.241333 
	C311.570343,238.893433 311.331970,239.323578 311.093628,239.753738 
	C309.326630,240.501602 307.559631,241.249451 305.412720,242.018860 
z"/>
<path fill="#FA8635" opacity="1.000000" stroke="none" 
	d="
M240.583405,142.978180 
	C240.151230,146.705353 237.443573,151.745621 238.940048,154.021561 
	C243.014053,160.217529 238.254440,166.102570 240.031860,172.255142 
	C241.594330,177.663696 239.665329,184.036911 239.561874,189.989014 
	C239.509033,193.029816 240.058334,196.083542 240.382034,199.126465 
	C240.450867,199.773376 241.069244,200.579468 240.847015,201.006546 
	C238.161346,206.167999 239.352600,210.841461 242.337402,215.412643 
	C243.195053,216.726105 243.640549,218.301727 244.421402,219.673843 
	C245.876923,222.231430 247.439789,224.727890 248.964050,227.612335 
	C237.718597,218.228622 230.612091,206.120239 228.735474,191.281799 
	C226.526688,173.817032 228.438370,157.217667 240.583405,142.978180 
z"/>
<path fill="#FB7435" opacity="1.000000" stroke="none" 
	d="
M258.009369,291.014557 
	C256.030609,287.509857 254.051849,284.005127 252.902435,281.969330 
	C253.400177,277.975891 253.960831,275.338501 254.015244,272.690704 
	C254.175888,264.874817 254.362579,257.046722 254.083740,249.239670 
	C253.934189,245.052261 252.849380,240.898239 252.132050,236.357346 
	C256.838593,238.622772 261.599701,241.260025 266.610046,244.414978 
	C267.239258,248.631668 267.895050,252.326782 267.946960,256.030334 
	C268.096191,266.680939 268.001373,277.334930 267.602173,287.991699 
	C264.137726,289.002075 261.073547,290.008331 258.009369,291.014557 
z"/>
<path fill="#FA6A36" opacity="1.000000" stroke="none" 
	d="
M268.002441,287.987610 
	C268.001373,277.334930 268.096191,266.680939 267.946960,256.030334 
	C267.895050,252.326782 267.239258,248.631668 266.940308,244.582489 
	C269.147614,244.792709 271.273834,245.353134 273.995544,246.246826 
	C275.378387,246.686264 276.165710,246.792450 276.953064,246.898636 
	C276.953064,246.898636 277.096588,246.900467 277.150208,247.264587 
	C277.797729,248.072906 278.391663,248.517136 278.985565,248.961349 
	C278.985565,248.961349 279.007599,248.988617 279.021973,249.000092 
	C279.117889,250.000000 278.808960,251.474228 279.341156,251.901947 
	C284.886597,256.358917 282.641998,262.503571 282.958282,268.043884 
	C283.175720,271.852234 282.787964,275.697876 283.053375,279.500122 
	C283.387268,284.282959 282.212219,288.334625 278.024261,291.783936 
	C277.325928,292.052643 277.144348,292.072754 276.968811,292.075714 
	C276.974915,292.058594 276.945435,292.052032 276.874817,291.705383 
	C273.870270,290.235046 270.936371,289.111328 268.002441,287.987610 
z"/>
<path fill="#F95638" opacity="1.000000" stroke="none" 
	d="
M320.891937,124.599792 
	C320.583771,124.975777 320.134857,125.007561 318.983978,124.970917 
	C316.707916,124.397141 315.152924,123.599182 313.552704,123.494820 
	C312.572815,123.430901 310.698273,124.350471 310.638123,124.966370 
	C310.218658,129.260529 310.401367,133.616333 309.931061,137.901901 
	C309.507477,141.761810 308.406525,145.543182 307.806671,149.390717 
	C307.642914,150.440887 308.047424,152.505951 308.463806,152.580399 
	C314.139160,153.595078 310.961426,156.538315 309.990326,159.000122 
	C308.865112,159.280899 307.725861,159.838699 306.617767,159.782379 
	C304.574310,159.678513 302.549133,159.214142 300.516357,158.899979 
	C301.156677,157.351852 301.903809,155.836502 302.393158,154.242050 
	C302.644928,153.421753 302.437378,152.460480 302.437378,151.064102 
	C300.955750,151.587143 299.939941,152.176437 298.892151,152.240143 
	C298.102203,152.288177 297.120789,151.819733 296.535919,151.257385 
	C296.315155,151.045090 296.945953,149.913513 297.228729,149.217316 
	C298.142303,146.967926 299.692902,144.776550 299.880829,142.471725 
	C300.394867,136.166992 300.115967,129.795883 300.678711,123.498184 
	C300.804047,122.095367 303.094849,120.886040 304.668884,119.403244 
	C310.216492,120.897774 315.483856,122.576691 320.891937,124.599792 
z"/>
<path fill="#F6413B" opacity="1.000000" stroke="none" 
	d="
M311.425415,239.819748 
	C311.331970,239.323578 311.570343,238.893433 312.152283,238.238525 
	C312.495911,238.013779 312.968018,238.009140 313.080597,238.126251 
	C313.193176,238.243378 313.642700,238.314560 313.642700,238.314560 
	C313.642700,238.314560 314.027191,238.039185 314.379150,237.970825 
	C318.488617,235.601852 322.246124,233.301224 326.003662,231.000595 
	C327.248993,230.803284 328.494324,230.605957 330.100159,230.546051 
	C325.696869,233.562668 320.989532,236.543274 316.129272,239.249298 
	C314.926636,239.918930 313.227905,239.697556 311.425415,239.819748 
z"/>
<path fill="#FA8635" opacity="1.000000" stroke="none" 
	d="
M244.653198,138.070251 
	C244.914490,140.279114 245.583740,143.076569 241.330353,142.945450 
	C242.069733,141.357071 243.207153,139.776703 244.653198,138.070251 
z"/>
<path fill="#F6413B" opacity="1.000000" stroke="none" 
	d="
M346.713135,219.187103 
	C346.557831,219.997559 346.096680,220.897888 345.320251,221.870819 
	C345.472382,221.054581 345.939850,220.165771 346.713135,219.187103 
z"/>
<path fill="#FA6237" opacity="1.000000" stroke="none" 
	d="
M279.001770,248.703796 
	C278.391663,248.517136 277.797729,248.072906 277.154541,247.336212 
	C277.674866,247.156357 278.244476,247.268997 278.934387,247.656555 
	C279.042450,248.103073 279.030182,248.274673 279.001770,248.703796 
z"/>
<path fill="#FA6237" opacity="1.000000" stroke="none" 
	d="
M276.825012,246.595398 
	C276.165710,246.792450 275.378387,246.686264 274.351501,246.400665 
	C274.973602,246.244904 275.835297,246.268539 276.825012,246.595398 
z"/>
<path fill="#F6413B" opacity="1.000000" stroke="none" 
	d="
M348.665955,216.191269 
	C348.768951,216.603210 348.594513,217.123260 348.219116,217.843964 
	C348.141602,217.462845 348.265076,216.881119 348.665955,216.191269 
z"/>
<path fill="#F6593A" opacity="1.000000" stroke="none" 
	d="
M316.660461,243.177246 
	C316.482574,243.474442 316.006897,243.701736 315.263580,243.949799 
	C315.451508,243.682831 315.907074,243.395096 316.660461,243.177246 
z"/>
<path fill="#FB7435" opacity="1.000000" stroke="none" 
	d="
M251.882202,235.651184 
	C251.474548,235.744278 250.949066,235.562698 250.236908,235.168915 
	C250.621613,235.096649 251.193008,235.236572 251.882202,235.651184 
z"/>
<path fill="#FA8635" opacity="1.000000" stroke="none" 
	d="
M245.719849,136.994278 
	C245.761536,137.161575 245.554596,137.424957 245.140427,137.832947 
	C245.112534,137.681808 245.291885,137.386078 245.719849,136.994278 
z"/>
<path fill="#F6413B" opacity="1.000000" stroke="none" 
	d="
M344.703796,222.057190 
	C344.816589,222.282120 344.633148,222.514740 344.198669,222.815506 
	C344.002655,222.568649 344.156006,222.295731 344.703796,222.057190 
z"/>
<path fill="#F6413B" opacity="1.000000" stroke="none" 
	d="
M343.690338,223.052521 
	C343.806793,223.279282 343.626770,223.510864 343.197998,223.810532 
	C342.991455,223.561157 343.139648,223.287399 343.690338,223.052521 
z"/>
<path fill="#F6413B" opacity="1.000000" stroke="none" 
	d="
M330.890015,131.739151 
	C330.683350,131.824661 330.457123,131.629791 330.154114,131.196259 
	C330.380524,131.046204 330.644928,131.213272 330.890015,131.739151 
z"/>
<path fill="#F6413B" opacity="1.000000" stroke="none" 
	d="
M329.947418,130.720123 
	C329.738464,130.857407 329.505066,130.704605 329.165192,130.345245 
	C329.402954,130.025436 329.691040,130.122559 329.947418,130.720123 
z"/>
<path fill="#FA8635" opacity="1.000000" stroke="none" 
	d="
M247.935257,232.718323 
	C247.729141,232.814331 247.494766,232.626968 247.176697,232.200836 
	C247.408981,232.024384 247.680298,232.182022 247.935257,232.718323 
z"/>
<path fill="#FA8635" opacity="1.000000" stroke="none" 
	d="
M248.966736,233.725922 
	C248.755005,233.823425 248.511536,233.628143 248.176712,233.188568 
	C248.329514,233.155914 248.612717,233.318878 248.966736,233.725922 
z"/>
<path fill="#EF7241" opacity="1.000000" stroke="none" 
	d="
M279.955627,317.638916 
	C279.792450,317.996277 279.611786,318.001099 278.845398,318.004944 
	C277.817993,318.339874 277.376312,318.675751 276.954712,318.983765 
	C276.974823,318.955902 276.994873,318.890167 276.576630,318.911865 
	C267.574982,321.869690 261.366150,318.063416 259.987671,310.658875 
	C259.649261,307.009247 261.083496,305.940125 264.295471,305.908783 
	C269.831207,305.854736 275.362183,305.320251 280.949158,304.561768 
	C280.320312,300.770660 279.637451,297.405151 278.986084,294.004150 
	C279.017609,293.968628 279.075836,293.893585 279.075836,293.893585 
	C283.250366,295.928528 284.548828,301.439636 282.712158,307.081512 
	C277.630920,308.788849 273.162750,310.290161 268.431366,311.879944 
	C269.329834,313.320587 270.260590,314.621002 270.989899,316.025970 
	C272.182983,318.324493 273.519135,318.519257 274.968445,316.376831 
	C277.384644,312.805084 278.794006,314.191101 279.955627,317.638916 
z"/>
<path fill="#000000" opacity="1.000000" stroke="none" 
	d="
M289.660187,289.886719 
	C291.842072,290.394318 293.680084,290.981506 295.555725,291.580688 
	C294.805756,296.806610 302.769318,314.822388 307.430054,316.871918 
	C305.631042,318.778503 304.004272,320.502563 302.060242,322.562836 
	C300.654785,319.564667 299.661774,317.446381 298.355347,315.170624 
	C298.041901,315.013184 298.032562,314.966156 297.996246,314.578125 
	C295.976685,309.098145 294.128296,303.947479 291.946686,298.942047 
	C291.019806,296.815460 289.394745,294.993195 288.087006,293.032623 
	C288.087006,293.032623 288.075592,292.911926 287.993378,292.622650 
	C287.621674,291.885773 287.332184,291.438141 287.042694,290.990540 
	C287.800568,290.649109 288.558472,290.307709 289.660187,289.886719 
z"/>
<path fill="#F6593A" opacity="1.000000" stroke="none" 
	d="
M288.066864,293.419495 
	C289.394745,294.993195 291.019806,296.815460 291.946686,298.942047 
	C294.128296,303.947479 295.976685,309.098145 297.972961,314.573486 
	C294.667023,312.176941 292.147156,309.237549 291.756470,304.394623 
	C291.465576,300.788940 289.349762,297.330444 288.066864,293.419495 
z"/>
<path fill="#F6593A" opacity="1.000000" stroke="none" 
	d="
M286.869202,291.175934 
	C287.332184,291.438141 287.621674,291.885773 287.932739,292.623962 
	C287.534821,292.396820 287.115265,291.879089 286.869202,291.175934 
z"/>
<path fill="#EF7241" opacity="1.000000" stroke="none" 
	d="
M276.962738,292.092834 
	C277.144348,292.072754 277.325928,292.052643 277.782532,292.026672 
	C278.057495,292.020813 278.076813,292.473572 278.047119,292.734619 
	C278.017395,292.995697 277.932617,293.070557 277.690033,293.001770 
	C277.285858,292.652924 277.124298,292.372894 276.962738,292.092834 
z"/>
<path fill="#EF7241" opacity="1.000000" stroke="none" 
	d="
M278.061829,292.960754 
	C278.383636,293.071503 278.622131,293.265106 278.948792,293.700073 
	C279.075836,293.893585 279.017609,293.968628 278.744690,293.931335 
	C278.292084,293.619537 278.112366,293.345032 277.932617,293.070557 
	C277.932617,293.070557 278.017395,292.995697 278.061829,292.960754 
z"/>
<path fill="#000000" opacity="1.000000" stroke="none" 
	d="
M277.690033,293.001770 
	C278.112366,293.345032 278.292084,293.619537 278.713196,293.966858 
	C279.637451,297.405151 280.320312,300.770660 280.491241,304.568176 
	C273.006042,305.000214 266.032806,305.000214 258.447845,305.000214 
	C259.082703,307.524872 259.530945,309.307404 259.979187,311.089905 
	C261.366150,318.063416 267.574982,321.869690 276.928986,319.217102 
	C277.096741,319.984039 276.562103,320.617798 275.880310,320.927094 
	C270.116943,323.541504 264.537964,322.502045 259.056305,319.961365 
	C259.056305,319.961365 259.021210,320.000122 258.974243,319.723083 
	C258.633820,319.283508 258.340393,319.120972 258.046967,318.958405 
	C258.046967,318.958405 258.001221,318.997559 257.959534,318.725647 
	C257.630707,318.296295 257.343567,318.138885 257.056396,317.981476 
	C257.056396,317.981476 257.040894,317.960083 256.982178,317.698090 
	C256.633392,317.279327 256.343292,317.122589 256.053223,316.965820 
	C256.053223,316.965820 256.022308,316.961334 256.014587,316.618805 
	C255.354980,315.502625 254.703079,314.728973 254.051178,313.955322 
	C254.051163,313.955322 254.000610,314.000000 253.996063,313.607605 
	C253.603012,311.813629 253.214523,310.412048 252.826019,309.010437 
	C252.309418,307.319305 249.666245,305.819305 252.496719,303.769745 
	C252.856430,303.509277 252.198959,301.843994 252.416931,300.427185 
	C253.533951,299.765289 254.626434,299.715759 254.903336,299.215149 
	C259.954071,290.083130 264.897308,288.199036 274.483337,291.810089 
	C275.228668,292.090851 276.121277,291.980560 276.945435,292.052032 
	C276.945435,292.052032 276.974915,292.058594 276.968811,292.075714 
	C277.124298,292.372894 277.285858,292.652924 277.690033,293.001770 
M261.062775,303.942230 
	C264.865509,303.953979 268.716003,304.318817 272.448914,303.814148 
	C274.078796,303.593811 276.925629,301.040527 276.718689,300.494446 
	C275.726685,297.876526 274.412842,294.529053 272.213257,293.414368 
	C268.674194,291.620972 263.998535,291.740356 261.068542,294.831421 
	C259.035858,296.975830 257.455780,300.436127 261.062775,303.942230 
z"/>
<path fill="#EF7241" opacity="1.000000" stroke="none" 
	d="
M276.874817,291.705383 
	C276.121277,291.980560 275.228668,292.090851 274.483337,291.810089 
	C264.897308,288.199036 259.954071,290.083130 254.903336,299.215149 
	C254.626434,299.715759 253.533951,299.765289 252.436371,300.073975 
	C253.885742,297.250763 255.719864,294.378357 257.781677,291.260254 
	C261.073547,290.008331 264.137726,289.002075 267.602173,287.991699 
	C270.936371,289.111328 273.870270,290.235046 276.874817,291.705383 
z"/>
<path fill="#FA8635" opacity="1.000000" stroke="none" 
	d="
M243.040100,311.041168 
	C245.159424,310.636200 245.159424,310.636200 243.360138,314.351349 
	C243.174652,312.880707 243.077362,312.109314 243.040100,311.041168 
z"/>
<path fill="#EF7241" opacity="1.000000" stroke="none" 
	d="
M252.631042,309.295532 
	C253.214523,310.412048 253.603012,311.813629 254.023956,313.588531 
	C253.543732,313.724304 253.031067,313.486755 252.263885,313.126404 
	C252.151596,311.862610 252.293839,310.721649 252.631042,309.295532 
z"/>
<path fill="#FA8635" opacity="1.000000" stroke="none" 
	d="
M246.511597,286.492432 
	C246.520355,286.514221 246.502853,286.470612 246.511597,286.492432 
z"/>
<path fill="#F0B992" opacity="1.000000" stroke="none" 
	d="
M233.114975,318.671967 
	C232.746780,317.844971 232.058060,316.537781 232.048447,315.225555 
	C231.963333,303.621643 231.983063,292.016785 232.016769,280.412323 
	C232.021393,278.821594 231.148193,276.370758 234.675598,277.528412 
	C234.276031,279.384766 233.131409,280.912292 233.115265,282.451721 
	C232.990387,294.363007 233.083649,306.276550 233.114975,318.671967 
z"/>
<path fill="#EF7241" opacity="1.000000" stroke="none" 
	d="
M259.110413,320.275208 
	C264.537964,322.502045 270.116943,323.541504 275.880310,320.927094 
	C276.562103,320.617798 277.096741,319.984039 277.347229,319.195435 
	C276.994873,318.890167 276.974823,318.955902 277.207306,319.338013 
	C277.947662,319.446411 278.455536,319.172729 278.963379,318.899048 
	C278.487854,322.880768 275.510864,323.729004 272.297272,323.944275 
	C269.189545,324.152435 266.057404,323.995758 262.472717,323.996063 
	C261.061127,322.858215 260.112793,321.723633 259.110413,320.275208 
z"/>
<path fill="#000000" opacity="1.000000" stroke="none" 
	d="
M278.964783,318.678650 
	C278.455536,319.172729 277.947662,319.446411 277.187195,319.365845 
	C277.376312,318.675751 277.817993,318.339874 278.574402,318.014099 
	C278.889130,318.024231 278.966156,318.458252 278.964783,318.678650 
z"/>
<path fill="#EF7241" opacity="1.000000" stroke="none" 
	d="
M254.050369,314.298706 
	C254.703079,314.728973 255.354980,315.502625 256.020935,316.604492 
	C255.373169,316.169159 254.711365,315.405640 254.050369,314.298706 
z"/>
<path fill="#EF7241" opacity="1.000000" stroke="none" 
	d="
M257.170410,318.188965 
	C257.343567,318.138885 257.630707,318.296295 257.979065,318.702576 
	C257.735748,318.837952 257.483826,318.652954 257.170410,318.188965 
z"/>
<path fill="#EF7241" opacity="1.000000" stroke="none" 
	d="
M258.167511,319.166412 
	C258.340393,319.120972 258.633820,319.283508 258.984802,319.701538 
	C258.740234,319.828400 258.488831,319.634186 258.167511,319.166412 
z"/>
<path fill="#EF7241" opacity="1.000000" stroke="none" 
	d="
M256.164856,317.173462 
	C256.343292,317.122589 256.633392,317.279327 256.972046,317.689575 
	C256.717621,317.828461 256.469574,317.641113 256.164856,317.173462 
z"/>
<path fill="#000000" opacity="1.000000" stroke="none" 
	d="
M311.990448,307.543915 
	C311.057098,308.414246 310.151093,308.920807 308.513184,309.836609 
	C310.633820,303.483398 315.405884,297.249176 307.032166,290.978485 
	C310.725311,290.978485 312.918793,290.978485 315.532898,291.036011 
	C318.703094,299.108459 320.873596,307.391846 324.418549,315.038025 
	C326.556824,319.650085 327.498718,319.267975 322.291138,321.624115 
	C319.681091,316.111359 317.070343,310.597107 314.198120,304.530609 
	C313.311798,305.607697 312.664795,306.393921 311.990448,307.543915 
z"/>
<path fill="#000000" opacity="1.000000" stroke="none" 
	d="
M334.665894,291.877167 
	C335.367828,293.349823 336.130310,294.964905 335.941986,296.460266 
	C335.693573,298.432709 334.698975,300.311127 333.735413,302.668945 
	C333.100311,303.311035 333.011383,303.594727 333.178894,303.958954 
	C333.113678,304.133057 333.048431,304.307129 332.627991,304.783783 
	C331.986389,305.298187 331.886017,305.577301 331.971649,305.923706 
	C331.971649,305.923706 331.925873,305.861938 331.890442,305.875092 
	C331.612946,305.065887 330.914978,304.000092 331.202942,303.460724 
	C333.047729,300.005463 335.307983,296.689117 332.384064,292.734253 
	C333.023834,292.478271 333.663574,292.222290 334.665894,291.877167 
z"/>
<path fill="#F64B3B" opacity="1.000000" stroke="none" 
	d="
M333.340942,303.830139 
	C333.011383,303.594727 333.100311,303.311035 333.682190,303.051727 
	C333.836334,303.263885 333.697754,303.499146 333.340942,303.830139 
z"/>
<path fill="#F64B3B" opacity="1.000000" stroke="none" 
	d="
M332.157501,305.815308 
	C331.886017,305.577301 331.986389,305.298187 332.492859,305.027740 
	C332.709412,305.274902 332.586182,305.520813 332.157501,305.815308 
z"/>
<path fill="#F6413B" opacity="1.000000" stroke="none" 
	d="
M348.178528,319.205200 
	C348.409973,319.018860 348.674347,319.163300 348.913330,319.680603 
	C348.698425,319.792053 348.472931,319.619568 348.178528,319.205200 
z"/>
<path fill="#FA6237" opacity="1.000000" stroke="none" 
	d="
M281.664001,120.050491 
	C284.586639,119.370201 287.156830,118.753555 289.663330,118.152184 
	C293.964722,126.026482 291.275299,134.322906 291.984528,142.305496 
	C292.013733,142.634308 291.995300,142.974503 291.947449,143.301865 
	C291.656403,145.292587 292.641571,152.520447 293.330048,153.684570 
	C291.247406,154.845642 289.163025,156.007706 286.614807,157.568039 
	C283.764282,157.643005 281.377655,157.319702 278.990997,156.996384 
	C273.769623,150.454010 275.225952,142.652847 275.150024,135.232224 
	C275.127136,132.995850 276.723541,130.742920 277.698517,128.181290 
	C276.682709,127.490891 275.534698,126.710663 273.454193,125.296684 
	C276.364014,123.377434 278.837769,121.745781 281.664001,120.050491 
z"/>
<path fill="#EF7241" opacity="1.000000" stroke="none" 
	d="
M278.638855,157.054611 
	C281.377655,157.319702 283.764282,157.643005 286.577515,157.943451 
	C287.862671,158.091904 288.721222,158.263199 289.462524,158.707306 
	C288.829651,159.996475 288.313965,161.012833 287.798279,162.029175 
	C283.487000,162.027740 279.175690,162.026306 274.435364,162.036865 
	C272.518829,161.216812 271.031311,160.384781 269.543823,159.552750 
	C271.167389,158.802353 272.737946,157.878845 274.432495,157.360336 
	C275.630310,156.993774 276.995941,157.175735 278.638855,157.054611 
z"/>
<path fill="#FA4E37" opacity="1.000000" stroke="none" 
	d="
M325.633118,230.983582 
	C322.246124,233.301224 318.488617,235.601852 314.114380,237.959045 
	C313.321075,238.013458 313.144531,238.011292 312.968018,238.009140 
	C312.968018,238.009140 312.495911,238.013779 312.260162,238.016571 
	C311.008240,236.995804 310.069702,235.875992 308.954163,234.975525 
	C307.819855,234.059875 306.511047,233.360367 305.680969,231.495804 
	C307.208344,231.392883 308.735687,231.289963 310.000000,231.204773 
	C310.000000,215.981949 309.949493,200.789017 310.020569,185.596649 
	C310.058044,177.590317 310.307739,169.584946 310.233337,161.285126 
	C310.003418,160.548645 310.001709,160.106201 309.995178,159.331940 
	C310.961426,156.538315 314.139160,153.595078 308.463806,152.580399 
	C308.047424,152.505951 307.642914,150.440887 307.806671,149.390717 
	C308.406525,145.543182 309.507477,141.761810 309.931061,137.901901 
	C310.401367,133.616333 310.218658,129.260529 310.638123,124.966370 
	C310.698273,124.350471 312.572815,123.430901 313.552704,123.494820 
	C315.152924,123.599182 316.707916,124.397141 318.646484,124.984863 
	C319.398621,126.825432 319.364471,128.839157 320.247711,130.297089 
	C323.854279,136.250107 322.601501,141.878815 319.719177,147.561096 
	C319.372437,148.244583 319.216736,149.142593 319.298187,149.906464 
	C319.813843,154.742920 320.867706,159.564880 320.919128,164.400375 
	C321.115112,182.831360 320.985931,201.265717 321.009460,219.698761 
	C321.013153,222.592239 320.818115,225.567352 321.446960,228.338608 
	C321.698273,229.446167 323.931488,230.104004 325.633118,230.983582 
z"/>
<path fill="#000000" opacity="1.000000" stroke="none" 
	d="
M287.848267,162.492554 
	C288.313965,161.012833 288.829651,159.996475 289.730713,158.900253 
	C290.116150,158.820389 290.428345,158.953079 290.673065,159.409988 
	C290.926086,172.833771 290.970551,185.800873 290.893494,198.767242 
	C290.884613,200.259750 290.198639,201.748260 289.826630,203.238617 
	C289.178925,202.112411 287.980164,200.992065 287.968140,199.859116 
	C287.837677,187.559189 287.893372,175.257294 287.848267,162.492554 
z"/>
<path fill="#F0B992" opacity="1.000000" stroke="none" 
	d="
M289.989197,203.448090 
	C290.198639,201.748260 290.884613,200.259750 290.893494,198.767242 
	C290.970551,185.800873 290.926086,172.833771 290.841980,159.394562 
	C292.559662,158.922226 294.353149,158.922226 296.146637,158.922226 
	C292.304321,159.684647 292.079559,162.195984 292.121765,165.325897 
	C292.269806,176.302719 292.221039,187.282623 292.179504,198.261124 
	C292.172699,200.062973 291.825867,201.863556 291.315796,203.978989 
	C290.714172,204.081360 290.432983,203.869461 289.989197,203.448090 
z"/>
<path fill="#F95638" opacity="1.000000" stroke="none" 
	d="
M313.080597,238.126251 
	C313.144531,238.011292 313.321075,238.013458 313.762421,238.027405 
	C314.027191,238.039185 313.642700,238.314560 313.642700,238.314560 
	C313.642700,238.314560 313.193176,238.243378 313.080597,238.126251 
z"/>
<path fill="#F0B992" opacity="1.000000" stroke="none" 
	d="
M259.987671,310.658875 
	C259.530945,309.307404 259.082703,307.524872 258.447845,305.000214 
	C266.032806,305.000214 273.006042,305.000214 280.437256,304.993805 
	C275.362183,305.320251 269.831207,305.854736 264.295471,305.908783 
	C261.083496,305.940125 259.649261,307.009247 259.987671,310.658875 
z"/>
<path fill="#EF7241" opacity="1.000000" stroke="none" 
	d="
M260.641724,303.800476 
	C257.455780,300.436127 259.035858,296.975830 261.068542,294.831421 
	C263.998535,291.740356 268.674194,291.620972 272.213257,293.414368 
	C274.412842,294.529053 275.726685,297.876526 276.718689,300.494446 
	C276.925629,301.040527 274.078796,303.593811 272.448914,303.814148 
	C268.716003,304.318817 264.865509,303.953979 260.641724,303.800476 
z"/>
</svg>